# xmcd
#
# Track frame offsets:
#	150
#	17509
#	41217
#	62004
#	76289
#	93234
#	105508
#	123755
#	141750
#	153924
#
# Disc length: 2234 seconds
#
# Revision: 1
# Processed by: cddbd v1.5.2PL0 Copyright (c) Steve Scherf et al.
# Submitted via: audiograbber 1.83.01
#
DISCID=7108b80a
DTITLE=Stephen Hill - Hyms volume one
DYEAR=2007
DGENRE=Andlig sång
TTITLE0=Blessed Assurance
TTITLE1=His eye is on the sparrow
TTITLE2=Great is thy faithfulness
TTITLE3=In the Garden
TTITLE4=Father Along
TTITLE5=Rock of ages
TTITLE6=Precious memories
TTITLE7=It is well with my soul
TTITLE8=What a freind we have in Jesus
TTITLE9=Love lifted me
EXTD=
EXTT0=
EXTT1=
EXTT2=
EXTT3=
EXTT4=
EXTT5=
EXTT6=
EXTT7=
EXTT8=
EXTT9=
PLAYORDER=
